<svg width="50" height="50" viewBox="0 0 50 50" fill="none" xmlns="http://www.w3.org/2000/svg">
<g clip-path="url(#clip0_3_2)">
<rect width="50" height="50" fill="#BEFA8D"/>
<line x1="47.5106" y1="41.4747" x2="26.3581" y2="23.7668" stroke="#6DB72F" stroke-width="2"/>
<path d="M17.42 13.978V43.408L22.982 44.434V46H7.052V44.596C8.06 44.272 9.032 44.02 9.968 43.84C10.94 43.624 11.894 43.462 12.83 43.354L13.316 13.708L7.052 12.52V11.008H44.852V12.358C43.988 12.646 43.07 12.898 42.098 13.114C41.126 13.33 40.118 13.492 39.074 13.6V43.408L44.852 44.434V46H28.868V44.704C29.84 44.38 30.794 44.11 31.73 43.894C32.666 43.642 33.584 43.462 34.484 43.354L34.97 13.978H17.42Z" fill="#C18D31"/>
<circle cx="16" cy="16" r="13" stroke="#6DB72F" stroke-width="2"/>
<line x1="14.5947" y1="27.0194" x2="14.5389" y2="31.1414" stroke="#C18D31" stroke-width="3"/>
<line x1="15.9113" y1="27.0902" x2="15.9035" y2="31.2115" stroke="#C18D31" stroke-width="3"/>
</g>
<defs>
<clipPath id="clip0_3_2">
<rect width="50" height="50" fill="white"/>
</clipPath>
</defs>
</svg>
