<svg width="282" height="50" viewBox="0 0 282 50" fill="none" xmlns="http://www.w3.org/2000/svg">
<g clip-path="url(#clip0_3_2)">
<rect width="282" height="50" fill="#BEFA8D"/>
<line x1="47.5106" y1="41.4747" x2="26.3581" y2="23.7668" stroke="#6DB72F" stroke-width="2"/>
<path d="M17.42 13.978V43.408L22.982 44.434V46H7.052V44.596C8.06 44.272 9.032 44.02 9.968 43.84C10.94 43.624 11.894 43.462 12.83 43.354L13.316 13.708L7.052 12.52V11.008H44.852V12.358C43.988 12.646 43.07 12.898 42.098 13.114C41.126 13.33 40.118 13.492 39.074 13.6V43.408L44.852 44.434V46H28.868V44.704C29.84 44.38 30.794 44.11 31.73 43.894C32.666 43.642 33.584 43.462 34.484 43.354L34.97 13.978H17.42Z" fill="#C18D31"/>
<circle cx="16" cy="16" r="13" stroke="#6DB72F" stroke-width="2"/>
<line x1="14.5947" y1="27.0194" x2="14.5389" y2="31.1414" stroke="#C18D31" stroke-width="3"/>
<line x1="15.9113" y1="27.0902" x2="15.9035" y2="31.2115" stroke="#C18D31" stroke-width="3"/>
<path d="M59.1688 35V21H65.6888C67.3155 21 68.5821 21.3133 69.4888 21.94C70.3955 22.5667 70.8488 23.46 70.8488 24.62C70.8488 25.7667 70.4221 26.66 69.5688 27.3C68.7155 27.9267 67.5821 28.24 66.1688 28.24L66.5488 27.4C68.1221 27.4 69.3421 27.7133 70.2088 28.34C71.0755 28.9667 71.5088 29.8733 71.5088 31.06C71.5088 32.2867 71.0421 33.2533 70.1088 33.96C69.1888 34.6533 67.8421 35 66.0688 35H59.1688ZM62.3888 32.6H65.9488C66.6955 32.6 67.2621 32.4533 67.6488 32.16C68.0355 31.8667 68.2288 31.4133 68.2288 30.8C68.2288 30.2133 68.0355 29.78 67.6488 29.5C67.2621 29.2067 66.6955 29.06 65.9488 29.06H62.3888V32.6ZM62.3888 26.8H65.4088C66.1155 26.8 66.6488 26.66 67.0088 26.38C67.3688 26.0867 67.5488 25.66 67.5488 25.1C67.5488 24.54 67.3688 24.12 67.0088 23.84C66.6488 23.5467 66.1155 23.4 65.4088 23.4H62.3888V26.8ZM79.4952 35V24.24H90.1952V35H87.0752V26.1L87.7752 26.8H81.8952L82.5952 26.1V35H79.4952ZM98.2266 35.16C97.0799 35.16 96.0599 34.92 95.1666 34.44C94.2866 33.96 93.5866 33.3067 93.0666 32.48C92.5599 31.64 92.3066 30.6867 92.3066 29.62C92.3066 28.54 92.5599 27.5867 93.0666 26.76C93.5866 25.92 94.2866 25.2667 95.1666 24.8C96.0599 24.32 97.0799 24.08 98.2266 24.08C99.3599 24.08 100.373 24.32 101.267 24.8C102.16 25.2667 102.86 25.9133 103.367 26.74C103.873 27.5667 104.127 28.5267 104.127 29.62C104.127 30.6867 103.873 31.64 103.367 32.48C102.86 33.3067 102.16 33.96 101.267 34.44C100.373 34.92 99.3599 35.16 98.2266 35.16ZM98.2266 32.6C98.7466 32.6 99.2133 32.48 99.6266 32.24C100.04 32 100.367 31.66 100.607 31.22C100.847 30.7667 100.967 30.2333 100.967 29.62C100.967 28.9933 100.847 28.46 100.607 28.02C100.367 27.58 100.04 27.24 99.6266 27C99.2133 26.76 98.7466 26.64 98.2266 26.64C97.7066 26.64 97.2399 26.76 96.8266 27C96.4133 27.24 96.0799 27.58 95.8266 28.02C95.5866 28.46 95.4666 28.9933 95.4666 29.62C95.4666 30.2333 95.5866 30.7667 95.8266 31.22C96.0799 31.66 96.4133 32 96.8266 32.24C97.2399 32.48 97.7066 32.6 98.2266 32.6ZM106.273 35V24.24H109.373V30.64L114.613 24.24H117.473V35H114.373V28.6L109.153 35H106.273ZM125.592 35.16C124.432 35.16 123.398 34.9267 122.492 34.46C121.585 33.98 120.872 33.32 120.352 32.48C119.845 31.64 119.592 30.6867 119.592 29.62C119.592 28.54 119.845 27.5867 120.352 26.76C120.872 25.92 121.585 25.2667 122.492 24.8C123.398 24.32 124.432 24.08 125.592 24.08C126.725 24.08 127.712 24.32 128.552 24.8C129.392 25.2667 130.012 25.94 130.412 26.82L127.992 28.12C127.712 27.6133 127.358 27.24 126.932 27C126.518 26.76 126.065 26.64 125.572 26.64C125.038 26.64 124.558 26.76 124.132 27C123.705 27.24 123.365 27.58 123.112 28.02C122.872 28.46 122.752 28.9933 122.752 29.62C122.752 30.2467 122.872 30.78 123.112 31.22C123.365 31.66 123.705 32 124.132 32.24C124.558 32.48 125.038 32.6 125.572 32.6C126.065 32.6 126.518 32.4867 126.932 32.26C127.358 32.02 127.712 31.64 127.992 31.12L130.412 32.44C130.012 33.3067 129.392 33.98 128.552 34.46C127.712 34.9267 126.725 35.16 125.592 35.16ZM139.928 35L136.328 29.9L138.868 28.4L143.608 35H139.928ZM132.308 35V24.24H135.428V35H132.308ZM134.508 30.92V28.42H138.268V30.92H134.508ZM139.168 29.98L136.248 29.66L140.028 24.24H143.348L139.168 29.98ZM151.384 35V32.9L151.184 32.44V28.68C151.184 28.0133 150.978 27.4933 150.564 27.12C150.164 26.7467 149.544 26.56 148.704 26.56C148.131 26.56 147.564 26.6533 147.004 26.84C146.458 27.0133 145.991 27.2533 145.604 27.56L144.484 25.38C145.071 24.9667 145.778 24.6467 146.604 24.42C147.431 24.1933 148.271 24.08 149.124 24.08C150.764 24.08 152.038 24.4667 152.944 25.24C153.851 26.0133 154.304 27.22 154.304 28.86V35H151.384ZM148.104 35.16C147.264 35.16 146.544 35.02 145.944 34.74C145.344 34.4467 144.884 34.0533 144.564 33.56C144.244 33.0667 144.084 32.5133 144.084 31.9C144.084 31.26 144.238 30.7 144.544 30.22C144.864 29.74 145.364 29.3667 146.044 29.1C146.724 28.82 147.611 28.68 148.704 28.68H151.564V30.5H149.044C148.311 30.5 147.804 30.62 147.524 30.86C147.258 31.1 147.124 31.4 147.124 31.76C147.124 32.16 147.278 32.48 147.584 32.72C147.904 32.9467 148.338 33.06 148.884 33.06C149.404 33.06 149.871 32.94 150.284 32.7C150.698 32.4467 150.998 32.08 151.184 31.6L151.664 33.04C151.438 33.7333 151.024 34.26 150.424 34.62C149.824 34.98 149.051 35.16 148.104 35.16ZM155.575 35L160.395 28.68L160.335 30.4L155.715 24.24H159.215L162.135 28.26L160.815 28.3L163.835 24.24H167.155L162.515 30.34V28.66L167.315 35H163.775L160.715 30.72L162.015 30.9L158.975 35H155.575ZM182.135 35L178.535 29.9L181.075 28.4L185.815 35H182.135ZM174.515 35V24.24H177.635V35H174.515ZM176.715 30.92V28.42H180.475V30.92H176.715ZM181.375 29.98L178.455 29.66L182.235 24.24H185.555L181.375 29.98ZM188.201 39.04C187.641 39.04 187.088 38.9533 186.541 38.78C185.995 38.6067 185.548 38.3667 185.201 38.06L186.341 35.84C186.581 36.0533 186.855 36.22 187.161 36.34C187.481 36.46 187.795 36.52 188.101 36.52C188.541 36.52 188.888 36.4133 189.141 36.2C189.408 36 189.648 35.66 189.861 35.18L190.421 33.86L190.661 33.52L194.521 24.24H197.521L192.661 35.66C192.315 36.5267 191.915 37.2067 191.461 37.7C191.021 38.1933 190.528 38.54 189.981 38.74C189.448 38.94 188.855 39.04 188.201 39.04ZM190.041 35.42L185.241 24.24H188.461L192.181 33.24L190.041 35.42ZM196.905 34.98L197.065 32.42C197.145 32.4333 197.225 32.4467 197.305 32.46C197.385 32.46 197.458 32.46 197.525 32.46C197.898 32.46 198.191 32.3533 198.405 32.14C198.618 31.9267 198.778 31.64 198.885 31.28C198.991 30.9067 199.065 30.4867 199.105 30.02C199.158 29.5533 199.198 29.0667 199.225 28.56L199.385 24.24H208.585V35H205.465V26.04L206.165 26.8H201.445L202.105 26L201.965 28.7C201.925 29.66 201.845 30.54 201.725 31.34C201.618 32.14 201.438 32.8333 201.185 33.42C200.931 33.9933 200.591 34.44 200.165 34.76C199.738 35.0667 199.191 35.22 198.525 35.22C198.285 35.22 198.031 35.2 197.765 35.16C197.498 35.12 197.211 35.06 196.905 34.98ZM217.405 27.68C218.818 27.6933 219.892 28.0133 220.625 28.64C221.372 29.2533 221.745 30.1267 221.745 31.26C221.745 32.4467 221.325 33.3733 220.485 34.04C219.645 34.6933 218.478 35.02 216.985 35.02L211.585 35V24.24H214.685V27.68H217.405ZM216.705 32.8C217.305 32.8133 217.765 32.6867 218.085 32.42C218.405 32.1533 218.565 31.7533 218.565 31.22C218.565 30.6867 218.405 30.3067 218.085 30.08C217.765 29.84 217.305 29.7133 216.705 29.7L214.685 29.68V32.8H216.705ZM225.037 35V26.08L225.737 26.8H221.397V24.24H231.777V26.8H227.437L228.137 26.08V35H225.037ZM234.959 39.04C234.399 39.04 233.846 38.9533 233.299 38.78C232.752 38.6067 232.306 38.3667 231.959 38.06L233.099 35.84C233.339 36.0533 233.612 36.22 233.919 36.34C234.239 36.46 234.552 36.52 234.859 36.52C235.299 36.52 235.646 36.4133 235.899 36.2C236.166 36 236.406 35.66 236.619 35.18L237.179 33.86L237.419 33.52L241.279 24.24H244.279L239.419 35.66C239.072 36.5267 238.672 37.2067 238.219 37.7C237.779 38.1933 237.286 38.54 236.739 38.74C236.206 38.94 235.612 39.04 234.959 39.04ZM236.799 35.42L231.999 24.24H235.219L238.939 33.24L236.799 35.42ZM252.124 35.16C251.218 35.16 250.424 34.96 249.744 34.56C249.064 34.16 248.531 33.5533 248.144 32.74C247.771 31.9133 247.584 30.8733 247.584 29.62C247.584 28.3533 247.764 27.3133 248.124 26.5C248.484 25.6867 249.004 25.08 249.684 24.68C250.364 24.28 251.178 24.08 252.124 24.08C253.138 24.08 254.044 24.3133 254.844 24.78C255.658 25.2333 256.298 25.8733 256.764 26.7C257.244 27.5267 257.484 28.5 257.484 29.62C257.484 30.7533 257.244 31.7333 256.764 32.56C256.298 33.3867 255.658 34.0267 254.844 34.48C254.044 34.9333 253.138 35.16 252.124 35.16ZM245.764 38.88V24.24H248.744V26.44L248.684 29.64L248.884 32.82V38.88H245.764ZM251.584 32.6C252.104 32.6 252.564 32.48 252.964 32.24C253.378 32 253.704 31.66 253.944 31.22C254.198 30.7667 254.324 30.2333 254.324 29.62C254.324 28.9933 254.198 28.46 253.944 28.02C253.704 27.58 253.378 27.24 252.964 27C252.564 26.76 252.104 26.64 251.584 26.64C251.064 26.64 250.598 26.76 250.184 27C249.771 27.24 249.444 27.58 249.204 28.02C248.964 28.46 248.844 28.9933 248.844 29.62C248.844 30.2333 248.964 30.7667 249.204 31.22C249.444 31.66 249.771 32 250.184 32.24C250.598 32.48 251.064 32.6 251.584 32.6ZM270.751 35V24.24H273.851V35H270.751ZM265.331 27.68C266.744 27.6933 267.804 28.0133 268.511 28.64C269.231 29.2533 269.591 30.1267 269.591 31.26C269.591 32.4467 269.184 33.3733 268.371 34.04C267.558 34.6933 266.404 35.02 264.911 35.02L259.671 35V24.24H262.771V27.68H265.331ZM264.631 32.8C265.231 32.8133 265.691 32.6867 266.011 32.42C266.331 32.1533 266.491 31.7533 266.491 31.22C266.491 30.6867 266.331 30.3067 266.011 30.08C265.691 29.84 265.231 29.7133 264.631 29.7L262.771 29.68V32.8H264.631Z" fill="#C18D31"/>
</g>
<defs>
<clipPath id="clip0_3_2">
<rect width="282" height="50" fill="white"/>
</clipPath>
</defs>
</svg>
